<?xml version="1.0"?>
<svg width="48" height="48" xmlns="http://www.w3.org/2000/svg">
 <g>
  <title>Layer 1</title>
  <g id="svg_1">
   <g id="Instagram">
    <path d="m5.583,13c-0.553,0 -1,-0.447 -1,-1v-9c0,-0.553 0.447,-1 1,-1s1,0.447 1,1v9c0,0.553 -0.447,1 -1,1z" id="svg_2" fill="#ffffff"/>
    <path d="m8.958,13c-0.553,0 -1,-0.447 -1,-1v-9.75c0,-0.553 0.447,-1 1,-1s1,0.447 1,1v9.75c0,0.553 -0.447001,1 -1,1z" id="svg_3" fill="#ffffff"/>
    <path d="m12.333,13c-0.553,0 -1,-0.447 -1,-1v-9.75c0,-0.553 0.447,-1 1,-1s1,0.447 1,1v9.75c0,0.553 -0.447001,1 -1,1z" id="svg_4" fill="#ffffff"/>
    <path d="m37.292,48h-25.375c-7.573,0 -11.917,-3.986 -11.917,-10.938v-24.937c0,-7.252 4.27,-12.125 10.625,-12.125h27.584c4.709,0 9.791,4.524 9.791,11.834v25.083c0,6.215 -4.702999,11.083 -10.708,11.083zm-26.667,-46c-6.366,0 -8.625,5.454 -8.625,10.125v24.938c0,7.386002 5.393,8.937 9.917,8.937h25.375c4.965,0 8.708,-3.904999 8.708,-9.083v-25.083c0,-6.073999 -4.043999,-9.834 -7.791,-9.834h-27.584l0,0z" id="svg_5" fill="#ffffff"/>
    <path d="m23.999001,15.25c-4.234001,0 -7.667,3.434 -7.667,7.667999c0,4.234001 3.432999,7.666 7.667,7.666c4.233,0 7.667,-3.431999 7.667,-7.666c0,-4.233999 -3.434,-7.667999 -7.667,-7.667999zm0,11.5c-2.117001,0 -3.834,-1.716 -3.834,-3.833s1.716999,-3.834 3.834,-3.834s3.834,1.716999 3.834,3.834s-1.717001,3.833 -3.834,3.833z" id="svg_6" fill="#ffffff"/>
    <path d="m23.999001,35.084c-6.709,0 -12.167001,-5.458 -12.167001,-12.167s5.458001,-12.167 12.167001,-12.167s12.167,5.458 12.167,12.167s-5.458,12.167 -12.167,12.167zm0,-22.334c-5.606001,0 -10.167001,4.561001 -10.167001,10.167c0,5.606001 4.561,10.167 10.167001,10.167c5.605999,0 10.167,-4.560999 10.167,-10.167c0,-5.605999 -4.561001,-10.167 -10.167,-10.167z" id="svg_7" fill="#ffffff"/>
    <rect x="32.999" y="14.92" width="14" height="2.16" id="svg_8" fill="#ffffff"/>
    <rect x="1.499" y="14.949" width="13.25" height="2.102" id="svg_9" fill="#ffffff"/>
    <path d="m41.333,10.133c0,1.214999 -0.985001,2.200999 -2.202,2.200999h-3.264c-1.216999,0 -2.202,-0.986 -2.202,-2.200999v-3.266c0,-1.215 0.985001,-2.201 2.202,-2.201h3.264c1.216999,0 2.202,0.986 2.202,2.201v3.266l0,0z" id="svg_10" fill="#ffffff"/>
   </g>
   <g id="svg_11"/>
   <g id="svg_12"/>
   <g id="svg_13"/>
   <g id="svg_14"/>
   <g id="svg_15"/>
   <g id="svg_16"/>
   <g id="svg_17"/>
   <g id="svg_18"/>
   <g id="svg_19"/>
   <g id="svg_20"/>
   <g id="svg_21"/>
   <g id="svg_22"/>
   <g id="svg_23"/>
   <g id="svg_24"/>
   <g id="svg_25"/>
  </g>
  <g id="svg_26"/>
  <g id="svg_27"/>
  <g id="svg_28"/>
  <g id="svg_29"/>
  <g id="svg_30"/>
  <g id="svg_31"/>
  <g id="svg_32"/>
  <g id="svg_33"/>
  <g id="svg_34"/>
  <g id="svg_35"/>
  <g id="svg_36"/>
  <g id="svg_37"/>
  <g id="svg_38"/>
  <g id="svg_39"/>
  <g id="svg_40"/>
 </g>
</svg>