<?xml version="1.0"?>
<svg width="39.99999999999999" height="79.99999999999999" xmlns="http://www.w3.org/2000/svg">
 <g>
  <title>Layer 1</title>
  <g id="svg_1">
   <g id="Instagram">
    <path fill="#7f7f7f" id="svg_2" d="m4.620888,10.759725c-0.457702,0 -0.827671,-0.369968 -0.827671,-0.827671v-7.44904c0,-0.457702 0.369969,-0.827671 0.827671,-0.827671s0.827671,0.369969 0.827671,0.827671v7.44904c0,0.457703 -0.369969,0.827671 -0.827671,0.827671z"/>
    <path fill="#7f7f7f" id="svg_3" d="m7.414278,10.759725c-0.457703,0 -0.827671,-0.369968 -0.827671,-0.827671v-8.069794c0,-0.457702 0.369968,-0.827671 0.827671,-0.827671s0.827671,0.369969 0.827671,0.827671v8.069794c0,0.457703 -0.36997,0.827671 -0.827671,0.827671z"/>
    <path fill="#7f7f7f" id="svg_4" d="m10.207668,10.759725c-0.457703,0 -0.827671,-0.369968 -0.827671,-0.827671v-8.069794c0,-0.457702 0.369968,-0.827671 0.827671,-0.827671s0.827671,0.369969 0.827671,0.827671v8.069794c0,0.457703 -0.36997,0.827671 -0.827671,0.827671z"/>
    <path fill="#7f7f7f" id="svg_5" d="m30.865511,39.728214h-21.002154c-6.267953,0 -9.863357,-3.299099 -9.863357,-9.053068v-20.639634c0,-6.002271 3.534156,-10.035512 8.794005,-10.035512h22.83048c3.897503,0 8.103729,3.744384 8.103729,9.79466v20.760474c0,5.143978 -3.892536,9.17308 -8.862703,9.17308zm-22.071506,-38.072872c-5.268954,0 -7.138663,4.514118 -7.138663,8.38017v20.640462c0,6.11318 4.463631,7.396898 8.208014,7.396898h21.002154c4.109388,0 7.207361,-3.232056 7.207361,-7.517738v-20.760474c0,-5.027273 -3.347103,-8.139317 -6.448387,-8.139317h-22.83048l0,0z"/>
    <path fill="#7f7f7f" id="svg_6" d="m19.863279,12.621984c-3.50436,0 -6.345754,2.842222 -6.345754,6.346582c0,3.50436 2.841393,6.344927 6.345754,6.344927c3.503532,0 6.345755,-2.840567 6.345755,-6.344927c0,-3.50436 -2.842222,-6.346582 -6.345755,-6.346582zm0,9.518217c-1.752182,0 -3.17329,-1.420282 -3.17329,-3.172462s1.421108,-3.173291 3.17329,-3.173291s3.17329,1.421111 3.17329,3.173291s-1.421112,3.172462 -3.17329,3.172462z"/>
    <path fill="#7f7f7f" id="svg_7" d="m19.863279,29.038013c-5.552845,0 -10.070275,-4.517429 -10.070275,-10.070274s4.51743,-10.070274 10.070275,-10.070274s10.070274,4.517428 10.070274,10.070274s-4.517429,10.070274 -10.070274,10.070274zm0,-18.485207c-4.639925,0 -8.414933,3.775008 -8.414933,8.414932c0,4.639925 3.775008,8.414932 8.414933,8.414932c4.639923,0 8.414932,-3.775007 8.414932,-8.414932c0,-4.639924 -3.775009,-8.414932 -8.414932,-8.414932z"/>
    <rect fill="#7f7f7f" id="svg_8" height="1.78777" width="11.587396" y="12.348853" x="27.312319"/>
    <rect fill="#7f7f7f" id="svg_9" height="1.739765" width="10.966642" y="12.372855" x="1.240679"/>
    <path fill="#7f7f7f" id="svg_10" d="m34.210129,8.386791c0,1.005619 -0.815254,1.821703 -1.822529,1.821703h-2.701519c-1.007277,0 -1.822533,-0.816084 -1.822533,-1.821703v-2.703174c0,-1.00562 0.815256,-1.821704 1.822533,-1.821704h2.701519c1.007275,0 1.822529,0.816084 1.822529,1.821704v2.703174l0,0z"/>
   </g>
   <g id="svg_11"/>
   <g id="svg_12"/>
   <g id="svg_13"/>
   <g id="svg_14"/>
   <g id="svg_15"/>
   <g id="svg_16"/>
   <g id="svg_17"/>
   <g id="svg_18"/>
   <g id="svg_19"/>
   <g id="svg_20"/>
   <g id="svg_21"/>
   <g id="svg_22"/>
   <g id="svg_23"/>
   <g id="svg_24"/>
   <g id="svg_25"/>
  </g>
  <g id="svg_26"/>
  <g id="svg_27"/>
  <g id="svg_28"/>
  <g id="svg_29"/>
  <g id="svg_30"/>
  <g id="svg_31"/>
  <g id="svg_32"/>
  <g id="svg_33"/>
  <g id="svg_34"/>
  <g id="svg_35"/>
  <g id="svg_36"/>
  <g id="svg_37"/>
  <g id="svg_38"/>
  <g id="svg_39"/>
  <g id="svg_40"/>
  <g id="svg_41">
   <g id="svg_42">
    <path id="svg_43" fill="#ffffff" d="m4.768598,50.789268c-0.457702,0 -0.827671,-0.369968 -0.827671,-0.827667v-7.449043c0,-0.457703 0.369969,-0.827671 0.827671,-0.827671s0.827671,0.369968 0.827671,0.827671v7.449043c0,0.457699 -0.369969,0.827667 -0.827671,0.827667z"/>
    <path id="svg_44" fill="#ffffff" d="m7.561988,50.789268c-0.457703,0 -0.827671,-0.369968 -0.827671,-0.827667v-8.069798c0,-0.457703 0.369968,-0.827671 0.827671,-0.827671s0.827672,0.369968 0.827672,0.827671v8.069798c0,0.457699 -0.36997,0.827667 -0.827672,0.827667z"/>
    <path id="svg_45" fill="#ffffff" d="m10.355379,50.789268c-0.457703,0 -0.827671,-0.369968 -0.827671,-0.827667v-8.069798c0,-0.457703 0.369968,-0.827671 0.827671,-0.827671s0.827671,0.369968 0.827671,0.827671v8.069798c0,0.457699 -0.36997,0.827667 -0.827671,0.827667z"/>
    <path id="svg_46" fill="#ffffff" d="m31.013222,79.757759h-21.002154c-6.267954,0 -9.863357,-3.299095 -9.863357,-9.05307v-20.639633c0,-6.00227 3.534156,-10.035511 8.794006,-10.035511h22.83048c3.897501,0 8.103727,3.744385 8.103727,9.794659v20.760475c0,5.143974 -3.892536,9.17308 -8.862701,9.17308zm-22.071506,-38.072872c-5.268955,0 -7.138664,4.514118 -7.138664,8.380169v20.640465c0,6.113174 4.46363,7.396896 8.208015,7.396896h21.002154c4.109386,0 7.207359,-3.232056 7.207359,-7.517738v-20.760475c0,-5.027271 -3.347103,-8.139317 -6.448385,-8.139317h-22.83048l0,0z"/>
    <path id="svg_47" fill="#ffffff" d="m20.01099,52.651527c-3.50436,0 -6.345754,2.842224 -6.345754,6.346584c0,3.50436 2.841393,6.344929 6.345754,6.344929c3.503532,0 6.345755,-2.840569 6.345755,-6.344929c0,-3.50436 -2.842222,-6.346584 -6.345755,-6.346584zm0,9.518219c-1.752182,0 -3.17329,-1.42028 -3.17329,-3.172462s1.421108,-3.17329 3.17329,-3.17329s3.17329,1.421108 3.17329,3.17329s-1.421112,3.172462 -3.17329,3.172462z"/>
    <path id="svg_48" fill="#ffffff" d="m20.01099,69.067558c-5.552845,0 -10.070275,-4.517426 -10.070275,-10.070274s4.51743,-10.070274 10.070275,-10.070274s10.070274,4.517429 10.070274,10.070274s-4.517429,10.070274 -10.070274,10.070274zm0,-18.485207c-4.639925,0 -8.414933,3.775009 -8.414933,8.414932c0,4.639923 3.775008,8.414932 8.414933,8.414932c4.639923,0 8.414932,-3.775009 8.414932,-8.414932c0,-4.639923 -3.775009,-8.414932 -8.414932,-8.414932z"/>
    <rect id="svg_49" fill="#ffffff" height="1.78777" width="11.587396" y="52.378398" x="27.460029"/>
    <rect id="svg_50" fill="#ffffff" height="1.739765" width="10.966642" y="52.4024" x="1.388389"/>
    <path id="svg_51" fill="#ffffff" d="m34.357838,48.416336c0,1.005619 -0.815254,1.821701 -1.822529,1.821701h-2.701517c-1.007277,0 -1.822533,-0.816082 -1.822533,-1.821701v-2.703175c0,-1.005619 0.815256,-1.821705 1.822533,-1.821705h2.701517c1.007275,0 1.822529,0.816086 1.822529,1.821705v2.703175l0,0z"/>
   </g>
   <g id="svg_52"/>
   <g id="svg_53"/>
   <g id="svg_54"/>
   <g id="svg_55"/>
   <g id="svg_56"/>
   <g id="svg_57"/>
   <g id="svg_58"/>
   <g id="svg_59"/>
   <g id="svg_60"/>
   <g id="svg_61"/>
   <g id="svg_62"/>
   <g id="svg_63"/>
   <g id="svg_64"/>
   <g id="svg_65"/>
   <g id="svg_66"/>
  </g>
 </g>
</svg>